<?xml version="1.0" encoding="UTF-8" standalone="no"?>
<!-- Created with Inkscape (http://www.inkscape.org/) -->

<svg
   xmlns:dc="http://purl.org/dc/elements/1.1/"
   xmlns:cc="http://creativecommons.org/ns#"
   xmlns:rdf="http://www.w3.org/1999/02/22-rdf-syntax-ns#"
   xmlns:svg="http://www.w3.org/2000/svg"
   xmlns="http://www.w3.org/2000/svg"
   xmlns:sodipodi="http://sodipodi.sourceforge.net/DTD/sodipodi-0.dtd"
   xmlns:inkscape="http://www.inkscape.org/namespaces/inkscape"
   width="353"
   height="125"
   id="svg2"
   version="1.1"
   inkscape:version="0.92.3 (2405546, 2018-03-11)"
   sodipodi:docname="osrec.svg"
   inkscape:export-filename="/home/osrec/repositories/private/OSREC/Artwork/logo.png"
   inkscape:export-xdpi="90"
   inkscape:export-ydpi="90">
  <defs
     id="defs4" />
  <sodipodi:namedview
     id="base"
     pagecolor="#ffffff"
     bordercolor="#666666"
     borderopacity="1.0"
     inkscape:pageopacity="0.0"
     inkscape:pageshadow="2"
     inkscape:zoom="1.9436364"
     inkscape:cx="23.646075"
     inkscape:cy="41.784096"
     inkscape:document-units="px"
     inkscape:current-layer="g3799"
     showgrid="false"
     inkscape:window-width="1600"
     inkscape:window-height="841"
     inkscape:window-x="0"
     inkscape:window-y="0"
     inkscape:window-maximized="1" />
  <metadata
     id="metadata7">
    <rdf:RDF>
      <cc:Work
         rdf:about="">
        <dc:format>image/svg+xml</dc:format>
        <dc:type
           rdf:resource="http://purl.org/dc/dcmitype/StillImage" />
        <dc:title />
      </cc:Work>
    </rdf:RDF>
  </metadata>
  <g
     inkscape:label="Layer 1"
     inkscape:groupmode="layer"
     id="layer1"
     transform="translate(0,-927.36217)">
    <g
       id="g4256"
       transform="matrix(2.2184936,0,0,2.2184936,-235.916,-1207.3474)"
       style="fill:#ffffff">
      <g
         id="g4248"
         style="fill:#ffffff">
        <g
           id="g3799"
           transform="matrix(0.26909885,0,0,0.26909885,-69.091313,776.44887)"
           style="fill:#f9f9f9">
          <g
             aria-label="OSREC
TECHNOLOGIES"
             style="font-style:normal;font-weight:normal;font-size:5.23717499px;line-height:0%;font-family:sans-serif;letter-spacing:0px;word-spacing:0px;fill:#ffffff;fill-opacity:1;stroke:none;stroke-width:0.43643123"
             id="text2987">
            <path
               d="m 833.18181,763.61378 q 0,11.73071 -3.91024,21.76453 -3.83646,9.96004 -10.91915,17.26407 -7.0827,7.30403 -17.04274,11.4356 -9.96004,4.05779 -22.13342,4.05779 -12.0996,0 -22.05964,-4.05779 -9.96004,-4.13157 -17.11651,-11.4356 -7.0827,-7.30403 -10.99294,-17.26407 -3.91023,-10.03382 -3.91023,-21.76453 0,-11.73071 3.91023,-21.69075 3.91024,-10.03382 10.99294,-17.33785 7.15647,-7.30403 17.11651,-11.36182 9.96004,-4.13157 22.05964,-4.13157 8.11559,0 15.27206,1.91823 7.15647,1.84445 13.1325,5.31202 5.97602,3.39379 10.69782,8.33692 4.79557,4.86935 8.11558,10.91915 3.32002,6.0498 5.01691,13.1325 1.77068,7.08269 1.77068,14.90317 z m -20.28897,0 q 0,-8.77959 -2.3609,-15.71473 -2.3609,-7.00892 -6.7138,-11.87827 -4.35291,-4.86935 -10.62405,-7.45158 -6.19735,-2.58224 -14.01783,-2.58224 -7.82047,0 -14.09161,2.58224 -6.19736,2.58223 -10.62404,7.45158 -4.35291,4.86935 -6.71381,11.87827 -2.36089,6.93514 -2.36089,15.71473 0,8.77959 2.36089,15.78851 2.3609,6.93513 6.71381,11.80449 4.42668,4.79557 10.62404,7.3778 6.27114,2.58224 14.09161,2.58224 7.82048,0 14.01783,-2.58224 6.27114,-2.58223 10.62405,-7.3778 4.3529,-4.86936 6.7138,-11.80449 2.3609,-7.00892 2.3609,-15.78851 z"
               style="font-style:normal;font-variant:normal;font-weight:bold;font-stretch:normal;font-size:147.55613708px;line-height:0.94999999;font-family:Lato;-inkscape-font-specification:'Lato Bold';text-align:center;letter-spacing:-5.72280407px;text-anchor:middle;fill:#ffffff;stroke-width:0.43643123"
               id="path822" />
            <path
               d="m 901.84114,729.67587 q -0.88534,1.54934 -1.91823,2.28712 -0.95912,0.664 -2.43468,0.664 -1.54934,0 -3.39379,-1.10667 -1.77068,-1.18045 -4.27913,-2.58223 -2.50845,-1.40179 -5.90225,-2.50846 -3.32001,-1.18045 -7.89425,-1.18045 -4.13157,0 -7.23025,1.0329 -3.09868,0.95911 -5.23824,2.72978 -2.06579,1.77068 -3.09868,4.27913 -1.03289,2.43468 -1.03289,5.3858 0,3.76268 2.06578,6.27114 2.13957,2.50845 5.60714,4.27913 3.46756,1.77067 7.89425,3.17245 4.42668,1.40179 9.0747,3.0249 4.64802,1.54934 9.0747,3.68891 4.42669,2.06578 7.89426,5.31202 3.46757,3.17245 5.53335,7.82047 2.13957,4.64802 2.13957,11.28805 0,7.23025 -2.50846,13.57516 -2.43467,6.27114 -7.23025,10.99293 -4.7218,4.64802 -11.58316,7.37781 -6.86136,2.65601 -15.71472,2.65601 -5.09069,0 -10.03382,-1.03289 -4.94313,-0.95912 -9.51737,-2.80357 -4.50047,-1.84445 -8.48448,-4.42668 -3.98402,-2.58223 -7.0827,-5.75469 l 5.82847,-9.51737 q 0.73778,-1.0329 1.91823,-1.6969 1.18045,-0.73778 2.50846,-0.73778 1.84445,0 3.98401,1.54934 2.13957,1.47556 5.09069,3.32001 2.95112,1.84446 6.86136,3.39379 3.98401,1.47557 9.51737,1.47557 8.48448,0 13.1325,-3.98402 4.64801,-4.05779 4.64801,-11.58316 0,-4.20535 -2.13956,-6.86136 -2.06579,-2.65601 -5.53335,-4.42668 -3.46757,-1.84445 -7.89426,-3.09868 -4.42668,-1.25423 -9.00092,-2.72979 -4.57424,-1.47556 -9.00093,-3.54135 -4.42668,-2.06578 -7.89425,-5.38579 -3.46757,-3.32002 -5.60713,-8.26315 -2.06579,-5.01691 -2.06579,-12.32094 0,-5.82846 2.28712,-11.36182 2.3609,-5.53335 6.78758,-9.81248 4.42669,-4.27913 10.91916,-6.86136 6.49247,-2.58223 14.90317,-2.58223 9.44359,0 17.41162,2.95112 7.96803,2.95112 13.57517,8.26314 z"
               style="font-style:normal;font-variant:normal;font-weight:bold;font-stretch:normal;font-size:147.55613708px;line-height:0.94999999;font-family:Lato;-inkscape-font-specification:'Lato Bold';text-align:center;letter-spacing:-5.72280407px;text-anchor:middle;fill:#ffffff;stroke-width:0.43643123"
               id="path824" />
            <path
               d="m 940.13848,775.27071 v 41.68461 h -19.8463 V 710.27224 h 32.53613 q 10.84537,0 18.59207,2.28712 7.82047,2.21334 12.7636,6.27113 5.01691,4.05779 7.37781,9.73871 2.3609,5.60713 2.3609,12.39471 0,5.3858 -1.62312,10.18138 -1.54934,4.79557 -4.57424,8.70581 -2.95112,3.91023 -7.3778,6.86136 -4.35291,2.95112 -9.96004,4.72179 3.76268,2.13957 6.49247,6.12358 l 26.70764,39.39749 h -17.92805 q -5.09069,0 -7.37781,-3.98401 l -22.42853,-34.15925 q -1.25423,-1.91823 -2.80357,-2.72979 -1.47556,-0.81156 -4.42668,-0.81156 z m 0,-14.23916 h 12.39471 q 5.60714,0 9.73871,-1.40179 4.20535,-1.40178 6.86136,-3.83646 2.72979,-2.50845 4.05779,-5.90224 1.32801,-3.39379 1.32801,-7.45159 0,-8.11558 -5.3858,-12.46849 -5.31202,-4.35291 -16.30495,-4.35291 h -12.68983 z"
               style="font-style:normal;font-variant:normal;font-weight:bold;font-stretch:normal;font-size:147.55613708px;line-height:0.94999999;font-family:Lato;-inkscape-font-specification:'Lato Bold';text-align:center;letter-spacing:-5.72280407px;text-anchor:middle;fill:#ffffff;stroke-width:0.43643123"
               id="path826" />
            <path
               d="m 1076.6713,710.27224 v 15.7885 h -47.3655 v 29.58501 h 37.3317 v 15.27206 h -37.3317 v 30.17523 h 47.3655 v 15.86228 h -67.2856 V 710.27224 Z"
               style="font-style:normal;font-variant:normal;font-weight:bold;font-stretch:normal;font-size:147.55613708px;line-height:0.94999999;font-family:Lato;-inkscape-font-specification:'Lato Bold';text-align:center;letter-spacing:-5.72280407px;text-anchor:middle;fill:#ffffff;stroke-width:0.43643123"
               id="path828" />
            <path
               d="m 1159.3485,791.797 q 1.6231,0 2.8773,1.25423 l 7.8205,8.48448 q -6.4925,8.04181 -16.0099,12.32093 -9.4436,4.27913 -22.7236,4.27913 -11.8783,0 -21.3956,-4.05779 -9.4436,-4.0578 -16.1574,-11.28805 -6.7138,-7.23025 -10.329,-17.26406 -3.5413,-10.03382 -3.5413,-21.91209 0,-12.02583 3.8364,-21.98587 3.8365,-10.03381 10.7716,-17.26406 7.009,-7.23025 16.6739,-11.21427 9.6649,-4.05779 21.3956,-4.05779 11.657,0 20.6579,3.83646 9.0747,3.83646 15.4196,10.03381 l -6.64,9.22226 q -0.5903,0.88534 -1.5494,1.54934 -0.8853,0.664 -2.5084,0.664 -1.1067,0 -2.2871,-0.59022 -1.1805,-0.664 -2.5823,-1.54934 -1.4018,-0.95912 -3.2462,-2.06579 -1.8445,-1.10667 -4.2791,-1.992 -2.4347,-0.95912 -5.6809,-1.54934 -3.1725,-0.66401 -7.3779,-0.66401 -7.1564,0 -13.1325,2.58224 -5.9022,2.50845 -10.1813,7.3778 -4.2792,4.79558 -6.6401,11.80449 -2.3608,6.93514 -2.3608,15.86229 0,9.00092 2.5084,16.00984 2.5822,7.00892 6.9351,11.80449 4.3529,4.79558 10.2552,7.37781 5.9022,2.50845 12.6898,2.50845 4.0578,0 7.3041,-0.44267 3.32,-0.44267 6.0498,-1.40178 2.8035,-0.95911 5.2382,-2.43468 2.5085,-1.54934 4.9431,-3.76268 0.7378,-0.664 1.5494,-1.03289 0.8115,-0.44267 1.6969,-0.44267 z"
               style="font-style:normal;font-variant:normal;font-weight:bold;font-stretch:normal;font-size:147.55613708px;line-height:0.94999999;font-family:Lato;-inkscape-font-specification:'Lato Bold';text-align:center;letter-spacing:-5.72280407px;text-anchor:middle;fill:#ffffff;stroke-width:0.43643123"
               id="path830" />
            <path
               d="m 756.92489,845.18617 v 4.03817 h -11.49516 v 31.46303 h -4.78139 v -31.46303 h -11.51993 v -4.03817 z"
               style="font-style:normal;font-variant:normal;font-weight:normal;font-stretch:normal;font-size:49.54808807px;line-height:0.94999999;font-family:Lato;-inkscape-font-specification:Lato;text-align:center;letter-spacing:5.46267653px;text-anchor:middle;fill:#ffffff;stroke-width:0.43643123"
               id="path832" />
            <path
               d="m 789.48262,845.18617 v 3.9143 h -17.06931 v 11.79244 h 13.82391 v 3.76566 h -13.82391 v 12.1145 h 17.09409 l -0.0248,3.9143 h -21.87548 v -35.5012 z"
               style="font-style:normal;font-variant:normal;font-weight:normal;font-stretch:normal;font-size:49.54808807px;line-height:0.94999999;font-family:Lato;-inkscape-font-specification:Lato;text-align:center;letter-spacing:5.46267653px;text-anchor:middle;fill:#ffffff;stroke-width:0.43643123"
               id="path834" />
            <path
               d="m 825.86331,873.35426 q 0.39638,0 0.69367,0.32206 l 1.9076,2.05624 q -2.18011,2.52696 -5.30164,3.93908 -3.09676,1.41212 -7.50654,1.41212 -3.8152,0 -6.93673,-1.31303 -3.12153,-1.33779 -5.32642,-3.7161 -2.20489,-2.40309 -3.41882,-5.74758 -1.21393,-3.3445 -1.21393,-7.35789 0,-4.0134 1.26348,-7.35789 1.26348,-3.3445 3.54269,-5.74758 2.30398,-2.40308 5.49984,-3.71611 3.19585,-1.3378 7.0606,-1.3378 3.79043,0 6.68899,1.21393 2.89856,1.21393 5.10345,3.29495 l -1.58554,2.20489 q -0.14864,0.24774 -0.39638,0.42116 -0.22297,0.14864 -0.61935,0.14864 -0.44593,0 -1.09006,-0.4707 -0.64412,-0.49549 -1.68463,-1.09006 -1.04051,-0.59458 -2.60128,-1.06529 -1.56076,-0.49548 -3.83998,-0.49548 -2.74991,0 -5.02913,0.96619 -2.27921,0.94141 -3.93907,2.74992 -1.63509,1.8085 -2.55173,4.40978 -0.91664,2.60127 -0.91664,5.87145 0,3.31972 0.94142,5.92099 0.96619,2.60128 2.60127,4.40978 1.65986,1.78374 3.88953,2.72515 2.25444,0.94141 4.85571,0.94141 1.58554,0 2.84902,-0.17342 1.28825,-0.19819 2.35353,-0.59457 1.09006,-0.39639 2.0067,-0.99096 0.94141,-0.61936 1.85805,-1.46167 0.42116,-0.37161 0.84232,-0.37161 z"
               style="font-style:normal;font-variant:normal;font-weight:normal;font-stretch:normal;font-size:49.54808807px;line-height:0.94999999;font-family:Lato;-inkscape-font-specification:Lato;text-align:center;letter-spacing:5.46267653px;text-anchor:middle;fill:#ffffff;stroke-width:0.43643123"
               id="path836" />
            <path
               d="m 868.26253,880.68737 h -4.80616 V 864.5347 h -19.15034 v 16.15267 h -4.80616 v -35.5012 h 4.80616 v 15.83061 h 19.15034 v -15.83061 h 4.80616 z"
               style="font-style:normal;font-variant:normal;font-weight:normal;font-stretch:normal;font-size:49.54808807px;line-height:0.94999999;font-family:Lato;-inkscape-font-specification:Lato;text-align:center;letter-spacing:5.46267653px;text-anchor:middle;fill:#ffffff;stroke-width:0.43643123"
               id="path838" />
            <path
               d="m 885.27843,845.18617 q 0.32206,0 0.54503,0.0496 0.22296,0.0248 0.39638,0.12387 0.17342,0.0743 0.34684,0.24774 0.17342,0.14864 0.37161,0.39638 l 20.53768,26.73119 q -0.0495,-0.64412 -0.0991,-1.2387 -0.0248,-0.61935 -0.0248,-1.16438 v -25.14565 h 4.21159 v 35.5012 h -2.40308 q -0.56981,0 -0.96619,-0.19819 -0.37161,-0.19819 -0.74322,-0.6689 l -20.53768,-26.73119 q 0.0495,0.61935 0.0743,1.21393 0.0248,0.59457 0.0248,1.09005 v 25.2943 h -4.21159 v -35.5012 h 2.47741 z"
               style="font-style:normal;font-variant:normal;font-weight:normal;font-stretch:normal;font-size:49.54808807px;line-height:0.94999999;font-family:Lato;-inkscape-font-specification:Lato;text-align:center;letter-spacing:5.46267653px;text-anchor:middle;fill:#ffffff;stroke-width:0.43643123"
               id="path840" />
            <path
               d="m 958.90302,862.94916 q 0,3.98862 -1.26347,7.33311 -1.26348,3.31973 -3.56747,5.72281 -2.30398,2.40308 -5.54938,3.74088 -3.22063,1.31302 -7.13493,1.31302 -3.9143,0 -7.13492,-1.31302 -3.22063,-1.3378 -5.52461,-3.74088 -2.30399,-2.40308 -3.56747,-5.72281 -1.26347,-3.34449 -1.26347,-7.33311 0,-3.98862 1.26347,-7.30835 1.26348,-3.34449 3.56747,-5.74757 2.30398,-2.42786 5.52461,-3.76566 3.22062,-1.3378 7.13492,-1.3378 3.9143,0 7.13493,1.3378 3.2454,1.3378 5.54938,3.76566 2.30399,2.40308 3.56747,5.74757 1.26347,3.31973 1.26347,7.30835 z m -4.93003,0 q 0,-3.27018 -0.89187,-5.87145 -0.89186,-2.60128 -2.52695,-4.38501 -1.63509,-1.8085 -3.96385,-2.77469 -2.32876,-0.96619 -5.20255,-0.96619 -2.84901,0 -5.17777,0.96619 -2.32876,0.96619 -3.98862,2.77469 -1.63509,1.78373 -2.52696,4.38501 -0.89186,2.60127 -0.89186,5.87145 0,3.27017 0.89186,5.87145 0.89187,2.5765 2.52696,4.385 1.65986,1.78373 3.98862,2.74992 2.32876,0.94141 5.17777,0.94141 2.87379,0 5.20255,-0.94141 2.32876,-0.96619 3.96385,-2.74992 1.63509,-1.8085 2.52695,-4.385 0.89187,-2.60128 0.89187,-5.87145 z"
               style="font-style:normal;font-variant:normal;font-weight:normal;font-stretch:normal;font-size:49.54808807px;line-height:0.94999999;font-family:Lato;-inkscape-font-specification:Lato;text-align:center;letter-spacing:5.46267653px;text-anchor:middle;fill:#ffffff;stroke-width:0.43643123"
               id="path842" />
            <path
               d="m 976.02344,876.6492 h 15.35991 v 4.03817 h -20.1413 v -35.5012 h 4.78139 z"
               style="font-style:normal;font-variant:normal;font-weight:normal;font-stretch:normal;font-size:49.54808807px;line-height:0.94999999;font-family:Lato;-inkscape-font-specification:Lato;text-align:center;letter-spacing:5.46267653px;text-anchor:middle;fill:#ffffff;stroke-width:0.43643123"
               id="path844" />
            <path
               d="m 1033.3119,862.94916 q 0,3.98862 -1.2635,7.33311 -1.2635,3.31973 -3.5675,5.72281 -2.304,2.40308 -5.5494,3.74088 -3.2206,1.31302 -7.1349,1.31302 -3.9143,0 -7.1349,-1.31302 -3.2206,-1.3378 -5.5246,-3.74088 -2.304,-2.40308 -3.56748,-5.72281 -1.26348,-3.34449 -1.26348,-7.33311 0,-3.98862 1.26348,-7.30835 1.26348,-3.34449 3.56748,-5.74757 2.304,-2.42786 5.5246,-3.76566 3.2206,-1.3378 7.1349,-1.3378 3.9143,0 7.1349,1.3378 3.2454,1.3378 5.5494,3.76566 2.304,2.40308 3.5675,5.74757 1.2635,3.31973 1.2635,7.30835 z m -4.9301,0 q 0,-3.27018 -0.8918,-5.87145 -0.8919,-2.60128 -2.527,-4.38501 -1.6351,-1.8085 -3.9638,-2.77469 -2.3288,-0.96619 -5.2026,-0.96619 -2.849,0 -5.1778,0.96619 -2.3287,0.96619 -3.9886,2.77469 -1.6351,1.78373 -2.5269,4.38501 -0.8919,2.60127 -0.8919,5.87145 0,3.27017 0.8919,5.87145 0.8918,2.5765 2.5269,4.385 1.6599,1.78373 3.9886,2.74992 2.3288,0.94141 5.1778,0.94141 2.8738,0 5.2026,-0.94141 2.3287,-0.96619 3.9638,-2.74992 1.6351,-1.8085 2.527,-4.385 0.8918,-2.60128 0.8918,-5.87145 z"
               style="font-style:normal;font-variant:normal;font-weight:normal;font-stretch:normal;font-size:49.54808807px;line-height:0.94999999;font-family:Lato;-inkscape-font-specification:Lato;text-align:center;letter-spacing:5.46267653px;text-anchor:middle;fill:#ffffff;stroke-width:0.43643123"
               id="path846" />
            <path
               d="m 1074.4879,877.24378 q -2.6756,1.93238 -5.7228,2.89856 -3.0225,0.94142 -6.6395,0.94142 -4.2859,0 -7.7295,-1.31303 -3.4436,-1.33779 -5.8962,-3.7161 -2.4278,-2.40309 -3.7409,-5.74758 -1.313,-3.3445 -1.313,-7.35789 0,-4.06295 1.2635,-7.40744 1.2882,-3.3445 3.6418,-5.72281 2.3535,-2.40308 5.7228,-3.7161 3.3692,-1.31303 7.5313,-1.31303 2.1058,0 3.9143,0.32207 1.8085,0.29728 3.3445,0.89186 1.536,0.5698 2.849,1.41212 1.313,0.81755 2.4526,1.85806 l -1.3626,2.18011 q -0.322,0.49548 -0.8423,0.64413 -0.4955,0.12387 -1.1148,-0.24774 -0.5946,-0.34684 -1.3626,-0.84232 -0.768,-0.49548 -1.8828,-0.94142 -1.0901,-0.4707 -2.6013,-0.79276 -1.4864,-0.32207 -3.5427,-0.32207 -2.9976,0 -5.4255,0.99096 -2.4278,0.96619 -4.1372,2.79947 -1.7095,1.80851 -2.6261,4.40978 -0.9166,2.5765 -0.9166,5.79713 0,3.34449 0.9414,5.99532 0.9662,2.62604 2.7251,4.4841 1.7838,1.83328 4.3107,2.79947 2.527,0.96618 5.6733,0.96618 1.2387,0 2.3039,-0.14864 1.0901,-0.14865 2.0811,-0.39639 0.9909,-0.27251 1.9076,-0.64412 0.9166,-0.39639 1.858,-0.89187 v -7.82859 h -5.5246 q -0.4707,0 -0.768,-0.27252 -0.2725,-0.27251 -0.2725,-0.6689 v -2.72514 h 10.9006 v 13.62572 z"
               style="font-style:normal;font-variant:normal;font-weight:normal;font-stretch:normal;font-size:49.54808807px;line-height:0.94999999;font-family:Lato;-inkscape-font-specification:Lato;text-align:center;letter-spacing:5.46267653px;text-anchor:middle;fill:#ffffff;stroke-width:0.43643123"
               id="path848" />
            <path
               d="m 1092.1131,880.68737 h -4.8062 v -35.5012 h 4.8062 z"
               style="font-style:normal;font-variant:normal;font-weight:normal;font-stretch:normal;font-size:49.54808807px;line-height:0.94999999;font-family:Lato;-inkscape-font-specification:Lato;text-align:center;letter-spacing:5.46267653px;text-anchor:middle;fill:#ffffff;stroke-width:0.43643123"
               id="path850" />
            <path
               d="m 1128.4837,845.18617 v 3.9143 h -17.0693 v 11.79244 h 13.8239 v 3.76566 h -13.8239 v 12.1145 h 17.0941 l -0.025,3.9143 h -21.8755 v -35.5012 z"
               style="font-style:normal;font-variant:normal;font-weight:normal;font-stretch:normal;font-size:49.54808807px;line-height:0.94999999;font-family:Lato;-inkscape-font-specification:Lato;text-align:center;letter-spacing:5.46267653px;text-anchor:middle;fill:#ffffff;stroke-width:0.43643123"
               id="path852" />
            <path
               d="m 1158.8752,850.73555 q -0.2229,0.37161 -0.4954,0.56981 -0.2478,0.17342 -0.6194,0.17342 -0.4212,0 -0.991,-0.42116 -0.5698,-0.42116 -1.4368,-0.91664 -0.8424,-0.52026 -2.0563,-0.94142 -1.1891,-0.42116 -2.8986,-0.42116 -1.6103,0 -2.849,0.44594 -1.2139,0.42116 -2.0562,1.16438 -0.8176,0.74322 -1.2387,1.75895 -0.4212,0.99097 -0.4212,2.15535 0,1.48644 0.7185,2.4774 0.7432,0.96619 1.9323,1.65986 1.214,0.69367 2.7252,1.21393 1.536,0.49548 3.1215,1.04051 1.6103,0.54503 3.1215,1.2387 1.536,0.6689 2.7252,1.70941 1.2139,1.04051 1.9324,2.55173 0.7432,1.51121 0.7432,3.7161 0,2.32876 -0.7928,4.38501 -0.7928,2.03147 -2.3287,3.54269 -1.5113,1.51121 -3.7409,2.37831 -2.2049,0.86709 -5.0292,0.86709 -3.4683,0 -6.2926,-1.2387 -2.8242,-1.26348 -4.8309,-3.39405 l 1.3873,-2.27921 q 0.1982,-0.27251 0.4708,-0.44593 0.2972,-0.1982 0.6441,-0.1982 0.322,0 0.7184,0.27252 0.4212,0.24774 0.9414,0.64412 0.5203,0.39639 1.1892,0.8671 0.6689,0.4707 1.5112,0.86709 0.8671,0.39638 1.9572,0.6689 1.09,0.24774 2.4526,0.24774 1.7094,0 3.0472,-0.47071 1.3378,-0.47071 2.2544,-1.31302 0.9415,-0.8671 1.4369,-2.05625 0.4955,-1.18915 0.4955,-2.65082 0,-1.61032 -0.7432,-2.62605 -0.7185,-1.04051 -1.9076,-1.73418 -1.1892,-0.69368 -2.7252,-1.16438 -1.5359,-0.49549 -3.1215,-0.99097 -1.5855,-0.52025 -3.1215,-1.18915 -1.536,-0.6689 -2.7252,-1.73418 -1.1891,-1.06529 -1.9323,-2.65083 -0.7185,-1.61031 -0.7185,-3.96384 0,-1.88283 0.7185,-3.64179 0.7432,-1.75895 2.1305,-3.12153 1.4122,-1.36257 3.4436,-2.18011 2.0563,-0.81755 4.7071,-0.81755 2.9729,0 5.4007,0.94142 2.4527,0.94141 4.3107,2.72514 z"
               style="font-style:normal;font-variant:normal;font-weight:normal;font-stretch:normal;font-size:49.54808807px;line-height:0.94999999;font-family:Lato;-inkscape-font-specification:Lato;text-align:center;letter-spacing:5.46267653px;text-anchor:middle;fill:#ffffff;stroke-width:0.43643123"
               id="path854" />
          </g>
          <path
             sodipodi:nodetypes="ccccc"
             inkscape:connector-curvature="0"
             id="path2991"
             d="m 778.8287,735.82874 -18.51629,50.69914 18.51629,-18.51621 18.51612,18.51621 z"
             style="fill:#ffffff;stroke:none;stroke-width:0.43643123" />
        </g>
      </g>
    </g>
  </g>
</svg>
